<?xml version="1.0" encoding="UTF-8"?>
<svg fill="#d2d2d2" width="161.01mm" height="73.518mm" version="1.1" viewBox="0 0 161.01 73.518" xml:space="preserve" xmlns="http://www.w3.org/2000/svg"><g transform="translate(-24.212 -110.1)"><g><path  d="m120.96 169.79c-0.0558-1.4775 0.80853-2.5663 2.34-2.5663 1.5314 0 1.7963 0.5963 2.2219 1.3515 0.0528-0.053 0.96933-1.564 4.2429-1.564 3.6525 0 5.983 2.6894 5.9149 4.6576-0.0176 0.50832 0.0174 9.6136 0.0174 9.6136 0 1.0376-0.99373 2.11-2.0222 2.11s-2.4088-0.53969-2.4088-2.0702c0 0-0.0215-8.1589-0.0215-8.3739 0-1.3135-1.4027-2.2412-2.9942-2.1905-1.5915 0.0507-2.7343 0.95477-2.7292 2.4499l0.0284 8.2169c0 1.3814-1.2553 2.0269-2.3067 2.0269s-2.3498-0.80111-2.3498-1.948z"/><path d="m107.46 175.33c0-3.3862 2.3181-4.4362 3.5865-4.4362 1.2684 0 3.4553 1.4438 3.4553 4.305 0 2.8612-1.7495 4.515-3.3022 4.515-1.5527 0-3.7396-0.9975-3.7396-4.3837zm-4.4834-1e-3c0-6.4018 5.2604-8.3869 8.1388-8.3869s7.841 2.7295 7.841 8.1388c0 5.4093-3.9701 8.5358-7.4936 8.5358-3.5235 0-8.4862-1.8858-8.4862-8.2876z" fill-rule="evenodd"/><path d="m96.391 169.77c-0.05575-1.4775 0.80854-2.5663 2.34-2.5663 1.5314 0 2.2093 1.0404 2.2093 2.5213l0.0403 11.679c0 1.3814-1.2553 2.0269-2.3067 2.0269s-2.3498-0.80111-2.3498-1.948z"/><path d="m79.037 169.78c-0.0558-1.4775 0.80853-2.5663 2.34-2.5663 1.5314 0 1.7963 0.59629 2.2219 1.3515 0.0528-0.053 0.96933-1.564 4.2429-1.564 3.6525 0 5.983 2.6894 5.9149 4.6576-0.0176 0.50832 0.0174 9.6136 0.0174 9.6136 0 1.0377-0.99373 2.11-2.0222 2.11s-2.4088-0.53969-2.4088-2.0702c0 0-0.0215-8.1589-0.0215-8.3739 0-1.3135-1.4027-2.2412-2.9942-2.1905-1.5915 0.0507-2.7343 0.95477-2.7292 2.4499l0.0284 8.2169c0 1.3814-1.2553 2.0269-2.3067 2.0269s-2.3498-0.80111-2.3498-1.948z"/><path d="m76.434 177.35c0 4.527-3.9039 6.2518-7.2769 6.2518s-7.4729-1.4663-7.4828-6.1405l-0.0174-8.211c-0.0022-1.0377 0.99373-2.11 2.0222-2.11s2.401 0.53971 2.4088 2.0702l0.04154 8.1535c0.0067 1.3135 1.3025 2.5712 2.914 2.5712 1.6116 0 2.8181-1.075 2.8093-2.5701l-0.04844-8.2569c0-1.3814 1.2681-2.0269 2.4347-2.0269 1.1667 0 2.2218 0.80111 2.2218 1.948z"/><g fill-rule="evenodd"><path d="m177.67 159.87c-4.3765-0.0545-4.7815-3.649-4.7815-4.6556 1.5099-0.0629 10.632-0.0629 10.632-0.0629 1.6376 0 1.6358-0.71113 1.6987-1.2774 0-4.3773-2.9485-8.1598-7.1722-8.1598-6.4216-0.11366-8.1788 5.8902-8.1788 8.053s0.88079 8.5563 7.5497 8.6821c2.7945 0.0527 4.9974-1.0147 6.0858-1.7045 1.509-0.95634 1.5199-1.8923 1.3146-2.243-0.49593-0.84731-1.2343-0.81708-2.3792 0.10972-1.2087 0.97849-2.3945 1.2878-4.7696 1.2583zm-4.9118-6.8709s0.2377-4.822 4.9578-4.822 4.6522 4.9238 4.6522 4.9238z"/><path d="m158.38 168.76c-2.2087 0-6.6516-1.4379-6.6516-3.0294 0-1.0367 0.89404-1.186 1.2352-1.186 1.3274 0 2.7586 1.8228 5.8541 1.8228 3.5013 0 4.5225-2.2175 4.5225-6.1564-1.2546 1.488-2.2175 2.1883-4.114 2.1883-3.5497 0-8.053-2.1679-8.053-8.5782 0-5.2228 4.0265-8.0238 7.4111-8.0238s4.7851 2.0132 4.7851 2.0132l-0.0207-0.93202c-9e-3 -0.80304 1.0845-1.0942 1.5531-1.0942s1.3491 0.45244 1.3339 1.0723l0.0306 14.096c6e-3 2.8558-1.262 7.8071-7.8863 7.8071zm-4.1923-14.785c0-4.2028 2.1958-5.7982 4.8375-5.7982 2.6418 0 4.6317 2.1271 4.6317 5.7982 0 3.671-1.7497 6.0726-4.563 6.0726s-4.9061-1.8698-4.9061-6.0726z"/><path d="m140.82 159.93c-4.3765-0.0545-4.7815-3.649-4.7815-4.6556 1.5099-0.0629 10.632-0.0629 10.632-0.0629 1.6376 0 1.6358-0.71113 1.6987-1.2774 0-4.3773-2.9485-8.1598-7.1722-8.1598-6.4216-0.11366-8.1788 5.8902-8.1788 8.053s0.88079 8.5563 7.5497 8.6821c2.7945 0.0527 4.9974-1.0147 6.0858-1.7045 1.509-0.95634 1.5199-1.8923 1.3146-2.243-0.49593-0.84731-1.2343-0.81708-2.3792 0.10972-1.2087 0.97849-2.3945 1.2878-4.7696 1.2583zm-4.9118-6.8709s0.2377-4.822 4.9578-4.822 4.6522 4.9238 4.6522 4.9238z"/></g><path d="m126.63 142.39v18.894c0 0.3593 0.5471 1.1343 1.5124 1.1343s1.4224-0.73623 1.4224-1.1343v-18.894c0-0.66173-0.71088-1.2423-1.4764-1.2423s-1.4584 0.58879-1.4584 1.2423z"/><path d="m119.2 142.42v18.894c0 0.3593 0.5471 1.1343 1.5124 1.1343s1.4224-0.73623 1.4224-1.1343v-18.894c0-0.66173-0.71088-1.2423-1.4764-1.2423s-1.4584 0.58879-1.4584 1.2423z"/><path d="m115.28 154.1c0.0889 5.1104-3.7158 8.3565-7.4125 8.3565s-7.8751-2.6484-7.8751-8.1018c0-5.4534 3.6159-8.6083 7.7696-8.6083s7.4292 3.2432 7.5181 8.3536zm-2.868 0.0192c0.0562 3.7136-2.2725 5.9723-4.6109 5.9723s-4.8782-1.8121-4.8782-5.775c0-3.9629 2.0875-6.121 4.7149-6.121 2.6274 0 4.718 2.2102 4.7742 5.9237z" fill-rule="evenodd"/><path d="m92.289 145.75c-2.9572 0-7.6949 2.1998-7.6949 8.7753s5.46 7.9046 8.3831 7.9046 4.1199-1.3921 4.1199-2.1927-0.67742-1.129-1.2317-1.129c-0.55425 0-1.2522 0.96481-3.1613 0.96481s-5.0293-1.4164-5.0293-5.5425 1.7085-6.2566 4.617-6.2566c2.9085 0 2.5285 0.71251 3.5547 0.71251s1.4765-0.34742 1.4765-1.2301-2.0768-2.0062-5.034-2.0062z" fill-rule="evenodd"/><path d="m171.85 115.77v21.327c0 0.3593 0.5471 1.1343 1.5124 1.1343s1.4224-0.73623 1.4224-1.1343v-21.327c0-0.66173-0.71088-1.2423-1.4764-1.2423s-1.4584 0.58879-1.4584 1.2423z"/><path transform="matrix(-1.0259 0 0 1 267.68 .12372)" d="m97.586 123.69c8.61e-4 -0.89745 0.29025-2.1506 1.4763-2.1668 1.1861-0.0161 1.4339 0.72343 1.4339 2.3109 1.1251-1.456 2.3375-2.3109 4.6782-2.3109 2.0745 0 7.3836 1.3527 7.44 8.2854 0.0564 6.9327-4.7901 8.3982-6.82 8.3982-3.1679 0-4.3218-1.013-5.1854-2.0291 2e-3 1.1762-0.56294 1.9832-1.5419 1.9832-0.97893 0-1.4942-0.79196-1.4937-1.4094zm7.502 0.21613c-1.4827 0-4.562 1.1256-4.562 5.7466s2.2521 6.1021 4.1578 6.1021 4.9951-0.38508 5.0529-5.9836c0.0577-5.5985-3.8093-5.8651-4.6486-5.8651z"/><circle cx="146.85" cy="117.79" r="1.7465"/><path d="m145.37 122.88v14.206c0 0.3593 0.5471 1.1343 1.5124 1.1343s1.4224-0.73623 1.4224-1.1343v-14.206c0-0.66173-0.71088-1.2423-1.4764-1.2423s-1.4584 0.58879-1.4584 1.2423z"/><path d="m134.28 137.02 0.0151-14.084c8.6e-4 -0.80336 0.71236-1.2953 1.4336-1.2953s1.4773 0.41483 1.4812 1.1779l8e-3 1.5806s1.5532-2.744 3.9122-2.744c1.2514 0 1.6528 0.67446 1.6528 1.3602s-0.58991 1.1954-1.2816 1.3514c-1.8721 0.42226-2.7178 0.87191-3.5336 1.9293-0.63745 0.82625-0.73466 2.5521-0.73466 2.5521l3e-3 8.0557c2.6e-4 0.80386-0.71078 1.3297-1.4585 1.3439-0.72981 0.0138-1.4977-0.57022-1.497-1.2273z"/><path d="m123.19 135.71c-4.3765-0.0545-4.7815-3.649-4.7815-4.6556 1.5099-0.0629 10.632-0.0629 10.632-0.0629 1.6376 0 1.6358-0.71113 1.6987-1.2774 0-4.3773-2.9485-8.1598-7.1722-8.1598-6.4216-0.11366-8.1788 5.8902-8.1788 8.053s0.88079 8.5563 7.5497 8.6821c2.7945 0.0527 4.9974-1.0147 6.0858-1.7045 1.509-0.95634 1.5199-1.8923 1.3146-2.243-0.49593-0.84731-1.2343-0.81708-2.3792 0.10972-1.2087 0.97849-2.3945 1.2878-4.7696 1.2583zm-4.9118-6.8709s0.2377-4.822 4.9578-4.822 4.6522 4.9238 4.6522 4.9238z" fill-rule="evenodd"/><path d="m97.586 123.43c-0.0016-0.84189 0.2612-1.9081 1.4448-1.9081 1.4723 0 1.4654 1.1438 1.4654 2.3109 1.1251-1.456 2.3375-2.3109 4.6782-2.3109 2.0745 0 7.3836 1.3527 7.44 8.2854 0.0564 6.9327-4.7901 8.3982-6.82 8.3982-3.1679 0-4.3218-1.013-5.1854-2.0291l-0.0238 5.751c-3e-3 0.67151-0.37912 1.4245-1.4416 1.4072-1.0625-0.0173-1.5205-0.69567-1.5218-1.3806l-0.03578-18.524zm7.1558 0.5552c1.5987 0 4.8791 0.34597 4.8791 6.0121 0 5.4331-3.5622 5.8785-4.2085 5.8785-1.3454 0-5.0591-0.70783-5.1219-5.6113-0.0668-5.2105 2.8526-6.2793 4.4513-6.2793z" fill-rule="evenodd"/><path d="m69.383 123.93c0-0.575-0.33542-2.3286 1.4275-2.3286 1.8089 0 1.516 1.848 1.516 1.848 0.92306-0.8088 2.2026-1.8432 4.1522-1.8432 1.9496 0 3.96 0.89543 5.0988 2.504 1.0295-1.0436 2.6709-2.523 4.986-2.523 3.6143 0 6.4427 2.4727 6.4277 5.5867l-0.04589 9.523s-0.13593 1.5829-1.5176 1.5829-1.4401-1.5545-1.4401-1.5545l-0.02492-9.4958c-0.0038-1.4491-1.0757-3.2017-3.4592-3.2394-2.3836-0.0377-3.834 1.5199-3.8446 3.1838l-0.06007 9.4313c-0.0048 0.7478-0.23517 1.7279-1.4309 1.7279s-1.4526-0.97546-1.4526-1.7279v-9.3495c0-1.5868-1.2495-3.2435-3.6906-3.2435s-3.6206 1.5358-3.6381 3.282l-0.09463 9.4199c-0.0072 0.71307-0.35353 1.6333-1.4335 1.6333-1.08 0-1.4755-0.85995-1.4755-1.6069z"/><circle cx="63.291" cy="116.79" r="2.3787"/><path d="m61.937 122.94c0.0024-0.65793 0.42097-1.3431 1.4464-1.3431s1.4449 0.68514 1.4464 1.3431l0.03161 13.984c0.0018 0.80092-0.77795 1.3246-1.4742 1.3246s-1.5047-0.50866-1.5019-1.2575z"/><circle cx="64.317" cy="152.64" r="8.2406"/><circle cx="45.114" cy="157.9" r="6.4565"/><circle cx="29.394" cy="145.82" r="5.1822"/><circle cx="28.721" cy="125.8" r="4.0778"/><circle cx="43.836" cy="113.16" r="3.0584"/></g></g></svg>
